<?xml version="1.0" encoding="UTF-8"?>
<!DOCTYPE svg PUBLIC "-//W3C//DTD SVG 1.1//EN" "http://www.w3.org/Graphics/SVG/1.1/DTD/svg11.dtd">
<!-- Creator: CorelDRAW 2021 (64-Bit) -->
<svg xmlns="http://www.w3.org/2000/svg" xml:space="preserve" width="20.7256in" height="6.19077in" version="1.1" style="shape-rendering:geometricPrecision; text-rendering:geometricPrecision; image-rendering:optimizeQuality; fill-rule:evenodd; clip-rule:evenodd"
viewBox="0 0 11877.15 3547.72"
 xmlns:xlink="http://www.w3.org/1999/xlink"
 xmlns:xodm="http://www.corel.com/coreldraw/odm/2003">
 <defs>
  <style type="text/css">
   <![CDATA[
    .fil0 {fill:none}
    .fil2 {fill:#E6E7E8;fill-rule:nonzero}
    .fil1 {fill:#E6E7E8;fill-rule:nonzero}
   ]]>
  </style>
 </defs>
 <g id="Layer_x0020_1">
  <metadata id="CorelCorpID_0Corel-Layer"/>
  <rect class="fil0" width="11877.15" height="3547.72"/>
  <path class="fil1" d="M3090.6 1748.09l0 678.33 -228.47 0 0 -855.42 214.25 0 14.23 177.09zm-31.62 220.58l-63.24 0c0,-59.55 7.11,-114.37 21.34,-164.45 14.76,-50.58 36.1,-94.34 64.03,-131.22 28.48,-37.43 63.52,-66.41 105.15,-86.97 41.65,-20.56 89.87,-30.84 144.69,-30.84 37.96,0 72.72,5.81 104.35,17.39 31.65,11.08 58.77,28.73 81.44,52.97 23.2,23.73 41.1,54.82 53.77,93.31 12.64,37.93 18.95,83.53 18.95,136.77l0 570.79 -227.67 0 0 -545.5c0,-38.99 -5.28,-69.05 -15.81,-90.12 -10.56,-21.09 -25.56,-35.85 -45.07,-44.29 -18.98,-8.42 -41.9,-12.64 -68.77,-12.64 -29.54,0 -55.35,6.06 -77.5,18.2 -21.59,12.12 -39.52,28.98 -53.74,50.58 -14.23,21.09 -24.78,45.87 -31.62,74.33 -6.86,28.45 -10.28,59.02 -10.28,91.7zm509.13 -26.09l-81.42 10.28c0,-55.86 6.84,-107.79 20.56,-155.75 14.23,-47.96 35.04,-90.12 62.44,-126.49 27.93,-36.37 62.46,-64.55 103.56,-84.59 41.12,-20.56 88.56,-30.84 142.3,-30.84 41.12,0 78.55,6.06 112.26,18.2 33.73,11.59 62.46,30.29 86.19,56.13 24.23,25.29 42.68,58.49 55.33,99.62 13.17,41.1 19.76,91.43 19.76,151l0 546.28 -228.47 0 0 -546.28c0,-39.54 -5.28,-69.58 -15.81,-90.14 -10.01,-21.07 -24.76,-35.57 -44.27,-43.49 -18.98,-8.42 -41.65,-12.64 -68,-12.64 -27.4,0 -51.38,5.53 -71.94,16.61 -20.56,10.53 -37.68,25.29 -51.38,44.27 -13.7,18.98 -23.98,41.1 -30.84,66.41 -6.84,24.76 -10.28,51.91 -10.28,81.42zm608.75 483.84l-608.75 -483.84zm951.09 387.39l226.89 -758.96 244.31 0 -343.93 984.29c-7.37,21.59 -17.4,44.79 -30.04,69.56 -12.12,24.78 -28.71,48.24 -49.8,70.38 -20.56,22.65 -46.65,41.1 -78.28,55.33 -31.09,14.23 -69.3,21.34 -114.63,21.34 -21.62,0 -39.26,-1.31 -52.96,-3.95 -13.72,-2.64 -30.06,-6.33 -49.02,-11.06l0 -166.81c5.78,0 11.84,0 18.17,0 6.34,0.53 12.39,0.78 18.18,0.78 30.04,0 54.55,-3.42 73.53,-10.28 18.98,-6.84 34.26,-17.4 45.85,-31.62 11.61,-13.7 20.84,-31.62 27.68,-53.74l64.05 -165.25zm-94.87 -758.96l185.79 619.83 32.4 241.12 -154.95 16.61 -307.55 -877.56 244.31 0zm568.43 855.42l-568.43 -855.42zm884.65 164.45l0 1019.87 -227.69 0 0 -1184.31 211.1 0 16.59 164.45zm541.55 253.78l0 16.59c0,62.21 -7.37,119.9 -22.12,173.14 -14.25,53.24 -35.32,99.62 -63.27,139.14 -27.93,39.01 -62.72,69.58 -104.35,91.72 -41.13,21.6 -88.56,32.4 -142.3,32.4 -52.19,0 -97.51,-10.53 -135.99,-31.62 -38.46,-21.07 -70.89,-50.6 -97.23,-88.53 -25.84,-38.48 -46.66,-83.03 -62.47,-133.6 -15.81,-50.6 -27.93,-104.9 -36.37,-162.86l0 -43.49c8.44,-62.19 20.56,-119.12 36.37,-170.78 15.81,-52.16 36.63,-97.23 62.47,-135.19 26.34,-38.46 58.5,-68.25 96.45,-89.34 38.46,-21.07 83.53,-31.62 135.19,-31.62 54.27,0 101.98,10.28 143.08,30.84 41.65,20.56 76.44,50.07 104.37,88.53 28.45,38.48 49.8,84.34 64.05,137.57 14.76,53.24 22.12,112.26 22.12,177.09zm-228.47 16.59l0 -16.59c0,-36.37 -3.17,-69.83 -9.5,-100.4 -5.78,-31.1 -15.28,-58.24 -28.45,-81.44 -12.64,-23.18 -29.51,-41.1 -50.6,-53.75 -20.54,-13.19 -45.57,-19.78 -75.11,-19.78 -31.09,0 -57.69,5 -79.84,15.03 -21.62,10.01 -39.26,24.51 -52.96,43.49 -13.7,18.96 -23.98,41.63 -30.84,67.97 -6.84,26.37 -11.06,56.13 -12.65,89.34l0 109.9c2.64,39.01 10.01,74.05 22.14,105.15 12.12,30.57 30.82,54.82 56.13,72.75 25.29,17.9 58.49,26.87 99.59,26.87 30.06,0 55.35,-6.59 75.91,-19.76 20.54,-13.72 37.15,-32.43 49.8,-56.13 13.17,-23.73 22.4,-51.13 27.67,-82.22 5.81,-31.09 8.7,-64.58 8.7,-100.42zm281.44 420.59l-281.44 -420.59zm610.33 -434.82l0 855.42 -228.47 0 0 -855.42 228.47 0zm-242.7 -222.94c0,-33.21 11.59,-60.61 34.77,-82.22 23.2,-21.59 54.29,-32.4 93.31,-32.4 38.46,0 69.3,10.81 92.48,32.4 23.73,21.62 35.59,49.02 35.59,82.22 0,33.21 -11.87,60.61 -35.59,82.22 -23.18,21.62 -54.02,32.43 -92.48,32.43 -39.01,0 -70.11,-10.81 -93.31,-32.43 -23.18,-21.62 -34.77,-49.02 -34.77,-82.22zm342.32 1078.36l-342.32 -1078.36zm849.86 222.94l0 161.28 -498.07 0 0 -161.28 498.07 0zm-374.72 -211.08l227.67 0 0 808.76c0,24.78 3.17,43.76 9.5,56.93 6.84,13.17 16.87,22.4 30.04,27.68 13.17,4.73 29.79,7.11 49.8,7.11 14.25,0 26.9,-0.53 37.96,-1.58 11.59,-1.58 21.34,-3.17 29.26,-4.75l0.78 167.61c-19.51,6.31 -40.57,11.31 -63.24,15.01 -22.67,3.7 -47.69,5.53 -75.11,5.53 -50.07,0 -93.81,-8.17 -131.24,-24.51 -36.88,-16.87 -65.36,-43.74 -85.37,-80.64 -20.03,-36.88 -30.04,-85.37 -30.04,-145.47l0 -831.69zm415.84 1066.49l-415.84 -1066.49zm857.78 904.43c27.93,0 52.71,-5.28 74.31,-15.81 21.62,-11.06 38.48,-26.37 50.6,-45.85 12.64,-20.03 19.23,-43.49 19.76,-70.36l214.27 0c-0.53,60.08 -16.61,113.57 -48.24,160.48 -31.62,46.38 -74.05,83 -127.3,109.9 -53.22,26.35 -112.79,39.52 -178.65,39.52 -66.41,0 -124.4,-11.06 -173.95,-33.21 -49.02,-22.12 -89.87,-52.69 -122.54,-91.7 -32.68,-39.54 -57.19,-85.39 -73.5,-137.55 -16.34,-52.71 -24.51,-109.12 -24.51,-169.2l0 -22.93c0,-60.61 8.17,-117.01 24.51,-169.2 16.32,-52.69 40.83,-98.54 73.5,-137.55 32.68,-39.54 73.53,-70.36 122.54,-92.51 49.02,-22.12 106.48,-33.2 172.36,-33.2 70.08,0 131.49,13.45 184.2,40.32 53.22,26.89 94.87,65.36 124.91,115.43 30.57,49.55 46.13,108.32 46.65,176.31l-214.27 0c-0.53,-28.48 -6.59,-54.3 -18.18,-77.47 -11.06,-23.2 -27.4,-41.65 -49.02,-55.35 -21.09,-14.23 -47.18,-21.34 -78.28,-21.34 -33.21,0 -60.33,7.11 -81.42,21.34 -21.09,13.7 -37.43,32.68 -49.02,56.91 -11.59,23.73 -19.76,50.88 -24.51,81.44 -4.22,30.04 -6.33,61.66 -6.33,94.87l0 22.93c0,33.2 2.11,65.1 6.33,95.67 4.22,30.57 12.12,57.71 23.73,81.42 12.12,23.73 28.71,42.43 49.8,56.13 21.09,13.7 48.49,20.56 82.22,20.56zm402.4 162.06l-402.4 -162.06zm713.12 -1052.27l0 1214.33 -227.69 0 0 -1214.33 227.69 0zm-32.43 756.58l-62.46 0c0.53,-59.55 8.44,-114.37 23.73,-164.45 15.28,-50.58 37.15,-94.34 65.61,-131.22 28.48,-37.43 62.46,-66.41 102,-86.97 40.04,-20.56 84.31,-30.84 132.8,-30.84 42.18,0 80.39,6.06 114.65,18.2 34.79,11.59 64.55,30.57 89.34,56.91 25.29,25.84 44.79,59.83 58.5,101.98 13.7,42.18 20.56,93.31 20.56,153.39l0 540.75 -229.28 0 0 -542.33c0,-37.96 -5.53,-67.72 -16.59,-89.34 -10.55,-22.14 -26.09,-37.68 -46.65,-46.65 -20.03,-9.48 -44.79,-14.23 -74.31,-14.23 -32.68,0 -60.63,6.06 -83.81,18.2 -22.67,12.12 -40.85,28.98 -54.55,50.58 -13.7,21.09 -23.73,45.87 -30.04,74.33 -6.33,28.45 -9.5,59.02 -9.5,91.7z"/>
  <path class="fil2" d="M8943.31 1212.09l0 1214.33 -227.69 0 0 -1214.33 227.69 0zm-32.4 756.58l-62.46 0c0.53,-59.55 8.44,-114.37 23.73,-164.45 15.28,-50.58 37.15,-94.34 65.61,-131.22 28.46,-37.43 62.46,-66.41 101.98,-86.97 40.07,-20.56 84.33,-30.84 132.82,-30.84 42.16,0 80.39,6.06 114.63,18.2 34.79,11.59 64.58,30.57 89.34,56.91 25.31,25.84 44.82,59.83 58.52,101.98 13.7,42.18 20.56,93.31 20.56,153.39l0 540.75 -229.27 0 0 -542.33c0,-37.96 -5.53,-67.72 -16.61,-89.34 -10.53,-22.14 -26.09,-37.68 -46.63,-46.65 -20.03,-9.48 -44.82,-14.23 -74.33,-14.23 -32.68,0 -60.61,6.06 -83.81,18.2 -22.65,12.12 -40.83,28.98 -54.55,50.58 -13.7,21.09 -23.71,45.87 -30.04,74.33 -6.31,28.45 -9.48,59.02 -9.48,91.7zm629.31 457.75l-629.31 -457.75zm1223.83 252.98l0 -650.65 227.69 0 0 855.42 -214.25 0 -13.45 -204.77zm25.29 -175.51l67.21 -1.58c0,56.93 -6.59,109.9 -19.78,158.92 -13.17,48.49 -32.93,90.65 -59.28,126.49 -26.37,35.32 -59.57,62.99 -99.62,83.03 -40.07,19.48 -87.23,29.24 -141.52,29.24 -41.63,0 -80.11,-5.78 -115.43,-17.4 -34.79,-12.12 -64.83,-30.82 -90.12,-56.13 -24.78,-25.82 -44.27,-58.75 -58.52,-98.81 -13.7,-40.57 -20.54,-89.34 -20.54,-146.25l0 -552.64 227.69 0 0 554.2c0,25.31 2.89,46.66 8.7,64.05 6.31,17.39 15.01,31.62 26.07,42.68 11.08,11.08 23.98,18.98 38.74,23.73 15.31,4.75 32.15,7.12 50.6,7.12 46.91,0 83.81,-9.48 110.68,-28.46 27.42,-18.98 46.65,-44.82 57.71,-77.5 11.61,-33.18 17.4,-70.08 17.4,-110.68zm287.77 380.27l-287.77 -380.27zm376.33 -834.05l227.69 0 0 1018.26 -22.92 196.07 -204.77 0 0 -1214.33zm769.25 777.92l0 16.61c0,63.77 -6.86,122.27 -20.56,175.51 -13.17,53.24 -33.73,99.34 -61.66,138.35 -27.93,38.46 -62.72,68.52 -104.37,90.12 -41.1,21.09 -89.59,31.62 -145.47,31.62 -52.16,0 -97.51,-10.53 -135.97,-31.62 -37.96,-21.07 -69.83,-50.85 -95.67,-89.34 -25.82,-38.46 -46.63,-83.53 -62.44,-135.19 -15.81,-51.66 -27.68,-108.04 -35.59,-169.17l0 -36.37c7.92,-61.13 19.78,-117.54 35.59,-169.2 15.81,-51.63 36.62,-96.7 62.44,-135.19 25.84,-38.46 57.71,-68.25 95.67,-89.34 37.94,-21.07 82.75,-31.62 134.39,-31.62 56.41,0 105.42,10.81 147.05,32.43 42.18,21.09 76.97,51.13 104.37,90.12 27.93,38.49 48.49,84.34 61.66,137.58 13.7,52.69 20.56,110.93 20.56,174.7zm-227.69 16.61l0 -16.61c0,-34.77 -2.64,-67.45 -7.92,-98.03 -4.73,-31.09 -13.17,-58.22 -25.29,-81.42 -12.12,-23.73 -28.73,-42.43 -49.8,-56.13 -20.56,-13.7 -47.18,-20.56 -79.86,-20.56 -31.09,0 -57.44,5.28 -79.06,15.81 -21.62,10.55 -39.54,25.31 -53.77,44.29 -13.7,18.96 -23.98,41.63 -30.82,67.97 -6.86,25.84 -11.08,54.29 -12.67,85.39l0 103.57c1.58,41.63 8.44,78.53 20.56,110.68 12.64,31.62 31.62,56.66 56.93,75.11 25.82,17.92 59.28,26.87 100.4,26.87 32.15,0 58.77,-6.31 79.84,-18.95 21.09,-12.67 37.43,-30.59 49.02,-53.77 12.14,-23.2 20.56,-50.32 25.31,-81.44 4.75,-31.62 7.11,-65.86 7.11,-102.76z"/>
  <g id="_1743693752544">
   <path class="fil2" d="M2193.11 2797.31c10.11,133.75 -90.12,250.39 -223.87,260.49 -133.75,10.11 -250.39,-90.14 -260.5,-223.89 -10.11,-133.75 90.14,-250.37 223.89,-260.47 133.75,-10.11 250.36,90.12 260.47,223.87z"/>
   <polygon class="fil2" points="1990.57,2735.3 1900.68,1684.42 1820.73,1697.76 1910.62,2748.64 "/>
  </g>
  <polygon class="fil2" points="1005.15,879.21 1820.29,1548.52 1866.55,1481.96 1051.42,812.65 "/>
  <path class="fil2" d="M1367.49 883.4c0,146.63 -118.87,265.51 -265.52,265.51 -146.63,0 -265.51,-118.88 -265.51,-265.51 0,-146.65 118.88,-265.52 265.51,-265.52 146.65,0 265.52,118.87 265.52,265.52z"/>
  <polygon class="fil2" points="967.4,2053.3 2775.09,998.62 2719.33,937.56 911.64,1992.24 "/>
  <path class="fil2" d="M2207.67 1495.43c0,201.19 -163.09,364.3 -364.3,364.3 -201.19,0 -364.3,-163.12 -364.3,-364.3 0,-201.21 163.12,-364.3 364.3,-364.3 201.21,0 364.3,163.09 364.3,364.3z"/>
  <path class="fil2" d="M3280.71 853.51c0,201.19 -163.09,364.3 -364.3,364.3 -201.19,0 -364.3,-163.12 -364.3,-364.3 0,-201.21 163.12,-364.3 364.3,-364.3 201.21,0 364.3,163.09 364.3,364.3z"/>
  <path class="fil2" d="M1290.82 2055.2c15.08,199.53 -134.43,373.52 -333.96,388.6 -199.53,15.08 -373.52,-134.47 -388.6,-333.99 -15.08,-199.53 134.47,-373.49 333.99,-388.57 199.53,-15.08 373.49,134.44 388.57,333.96z"/>
 </g>
</svg>
